<?xml version="1.0" encoding="utf-8"?>
<!-- Generator: Adobe Illustrator 26.0.1, SVG Export Plug-In . SVG Version: 6.00 Build 0)  -->
<svg version="1.1" id="Layer_1" xmlns="http://www.w3.org/2000/svg" xmlns:xlink="http://www.w3.org/1999/xlink" x="0px" y="0px"
	 viewBox="-52.772 -116.405 113.879 99.617" enable-background="new -52.772 -116.405 113.879 99.617" xml:space="preserve">
<linearGradient id="SVGID_1_" gradientUnits="userSpaceOnUse" x1="-22.094" y1="-81.0173" x2="26.5324" y2="-81.0173">
	<stop  offset="0" style="stop-color:#C3DB85"/>
	<stop  offset="1" style="stop-color:#89BA37"/>
</linearGradient>
<path fill="url(#SVGID_1_)" d="M-6.941-101.264c0.033-0.198,0.149-0.396,0.313-0.628c0.182-0.214,0.381-0.412,0.629-0.611
	c0.246-0.181,0.527-0.347,0.808-0.446c0.281-0.116,0.545-0.166,0.794-0.166H7.699c0.527,0,0.99,0.166,1.353,0.496
	c0.38,0.331,0.662,0.627,0.86,0.877l1.174,2.694l15.447,39.861c-6.262,0.496-13.167,0.248-20.339-0.281h2.676L1.65-81.062
	c-0.596,1.604-1.191,3.34-1.818,5.192c-0.61,1.867-1.222,3.736-1.817,5.621c-0.596,1.902-1.19,3.752-1.816,5.587
	c-0.48,1.471-0.976,2.86-1.455,4.184c-5.634-0.546-11.458-1.468-16.837-2.395L-6.941-101.264z"/>
<linearGradient id="SVGID_00000017504851882561281920000001227896973582380985_" gradientUnits="userSpaceOnUse" x1="-39.1758" y1="-34.4032" x2="39.9112" y2="-39.6439">
	<stop  offset="0" style="stop-color:#61BEFF"/>
	<stop  offset="1" style="stop-color:#0076F1"/>
</linearGradient>
<path fill="url(#SVGID_00000017504851882561281920000001227896973582380985_)" d="M31.853-45.433l4.014,10.381
	c0.248,0.629,0.201,1.124-0.147,1.522c-0.331,0.396-0.942,0.594-1.787,0.594H20.387c-0.728,0-1.275-0.132-1.669-0.413
	c-0.396-0.264-0.711-0.711-0.925-1.338c-0.629-1.602-1.241-3.207-1.833-4.794c-0.562-1.47-1.109-2.926-1.671-4.414
	C20.584-43.797,26.532-44.177,31.853-45.433L31.853-45.433z"/>
<linearGradient id="SVGID_00000018228087718907146500000001692163659251337122_" gradientUnits="userSpaceOnUse" x1="-39.4892" y1="-39.1245" x2="39.5982" y2="-44.3653">
	<stop  offset="0" style="stop-color:#61BEFF"/>
	<stop  offset="1" style="stop-color:#0076F1"/>
</linearGradient>
<path fill="url(#SVGID_00000018228087718907146500000001692163659251337122_)" d="M5.862-44.258h-16.77
	c-0.593,1.602-1.188,3.19-1.8,4.777c-0.629,1.587-1.24,3.192-1.833,4.794c-0.414,1.174-1.208,1.751-2.415,1.751h-13.91
	c-0.596,0-1.091-0.147-1.488-0.462c-0.396-0.331-0.462-0.795-0.215-1.422l4.923-12.78C-16.807-46.739-5.158-45.036,5.862-44.258
	L5.862-44.258z"/>
<linearGradient id="SVGID_00000065792863165631350300000015818890818767793038_" gradientUnits="userSpaceOnUse" x1="44.2051" y1="-68.1931" x2="-44.2526" y2="-57.2342">
	<stop  offset="0" style="stop-color:#61BEFF"/>
	<stop  offset="1" style="stop-color:#0076F1"/>
</linearGradient>
<path fill-rule="evenodd" clip-rule="evenodd" fill="url(#SVGID_00000065792863165631350300000015818890818767793038_)" d="
	M-22.704-61.007c33.572-0.281,73.211,6.234,73.756-26.567c6.462,51.071-42,40.785-79.043,40.852L-22.704-61.007z"/>
</svg>
